HIERARCHY
ROOT Hips
{
	OFFSET 0.000000 0.000000 0.000000
	CHANNELS 6 Xposition Yposition Zposition Zrotation Yrotation Xrotation 
	JOINT LeftUpLeg_virtual
	{
		OFFSET 0.000000 0.000000 0.000000
		CHANNELS 3 Zrotation Yrotation Xrotation
		JOINT LeftUpLeg
		{
			OFFSET 8.479694 -4.795517 -0.379053
			CHANNELS 3 Zrotation Yrotation Xrotation
			JOINT LeftLeg
			{
				OFFSET 0.485052 -32.551468 0.112863
				CHANNELS 3 Zrotation Yrotation Xrotation
				JOINT LeftFoot
				{
					OFFSET 0.438033 -32.635670 -3.012641
					CHANNELS 3 Zrotation Yrotation Xrotation
					JOINT LeftToeBase
					{
						OFFSET 0.970169 -13.225353 11.864223
						CHANNELS 3 Zrotation Yrotation Xrotation
						End Site
						{
							OFFSET 0.000000 0.000000 0.000000
						}
					}
				}
			}
		}
	}
	JOINT RightUpLeg_virtual
	{
		OFFSET 0.000000 0.000000 0.000000
		CHANNELS 3 Zrotation Yrotation Xrotation
		JOINT RightUpLeg
		{
			OFFSET -8.479694 -4.795517 -0.379053
			CHANNELS 3 Zrotation Yrotation Xrotation
			JOINT RightLeg
			{
				OFFSET -0.484100 -32.551483 0.112903
				CHANNELS 3 Zrotation Yrotation Xrotation
				JOINT RightFoot
				{
					OFFSET -0.438985 -32.635651 -3.012681
					CHANNELS 3 Zrotation Yrotation Xrotation
					JOINT RightToeBase
					{
						OFFSET -0.970169 -13.225354 11.864223
						CHANNELS 3 Zrotation Yrotation Xrotation
						End Site
						{
							OFFSET 0.000000 0.000000 0.000000
						}
					}
				}
			}
		}
	}
	JOINT Spine_virtual
	{
		OFFSET 0.000000 0.000000 0.000000
		CHANNELS 3 Zrotation Yrotation Xrotation
		JOINT Spine
		{
			OFFSET 0.000000 7.722015 1.166203
			CHANNELS 3 Zrotation Yrotation Xrotation
			JOINT Spine1
			{
				OFFSET 0.000000 12.024086 0.248766
				CHANNELS 3 Zrotation Yrotation Xrotation
				JOINT Spine2
				{
					OFFSET -0.000000 11.503036 -0.491240
					CHANNELS 3 Zrotation Yrotation Xrotation
					JOINT Neck_virtual
					{
						OFFSET 0.000000 0.000000 0.000000
						CHANNELS 3 Zrotation Yrotation Xrotation
						JOINT Neck
						{
							OFFSET 0.000000 18.430687 -3.123054
							CHANNELS 3 Zrotation Yrotation Xrotation
							JOINT Head
							{
								OFFSET -0.000000 9.051071 1.034021
								CHANNELS 3 Zrotation Yrotation Xrotation
								End Site
								{
									OFFSET 0.000000 0.000000 0.000000
								}
							}
						}
					}
					JOINT LeftShoulder_virtual
					{
						OFFSET 0.000000 0.000000 0.000000
						CHANNELS 3 Zrotation Yrotation Xrotation
						JOINT LeftShoulder
						{
							OFFSET 6.197824 13.665230 -4.064723
							CHANNELS 3 Zrotation Yrotation Xrotation
							JOINT LeftArm
							{
								OFFSET 7.778132 -0.187073 -1.709282
								CHANNELS 3 Zrotation Yrotation Xrotation
								JOINT LeftForeArm
								{
									OFFSET 21.954697 0.000000 -2.041093
									CHANNELS 3 Zrotation Yrotation Xrotation
									JOINT LeftHand
									{
										OFFSET 22.992908 0.000000 -0.870901
										CHANNELS 3 Zrotation Yrotation Xrotation
										End Site
										{
											OFFSET 0.000000 0.000000 0.000000
										}
									}
								}
							}
						}
					}
					JOINT RightShoulder_virtual
					{
						OFFSET 0.000000 0.000000 0.000000
						CHANNELS 3 Zrotation Yrotation Xrotation
						JOINT RightShoulder
						{
							OFFSET -6.197824 13.665230 -4.064723
							CHANNELS 3 Zrotation Yrotation Xrotation
							JOINT RightArm
							{
								OFFSET -7.778132 -0.187073 -1.709282
								CHANNELS 3 Zrotation Yrotation Xrotation
								JOINT RightForeArm
								{
									OFFSET -21.954697 0.000000 -2.041093
									CHANNELS 3 Zrotation Yrotation Xrotation
									JOINT RightHand
									{
										OFFSET -22.992908 0.000000 -0.870901
										CHANNELS 3 Zrotation Yrotation Xrotation
										End Site
										{
											OFFSET 0.000000 0.000000 0.000000
										}
									}
								}
							}
						}
					}
				}
			}
		}
	}
}
MOTION
Frames: 10
Frame Time: 0.033333
20.576025 78.482002 0.719892 179.936471 3.533273 179.932345 -1.140483 -0.619389 9.362931 1.689126 -3.385138 -32.439027 5.700586 5.444773 28.772510 -2.041665 -2.115362 -11.404524 0.000000 0.000000 0.000000 2.670227 -2.388119 9.064703 -3.447349 8.705986 -31.275873 -0.831851 5.502894 32.002121 7.894030 5.392870 -16.610909 0.000000 0.000000 0.000000 3.810700 1.254156 -3.270054 -2.343236 -2.771786 -6.116687 -1.420415 -1.357895 9.799626 0.002371 0.105239 -0.013830 -1.853496 0.428745 10.982009 -0.716255 -0.427036 0.726693 0.000000 0.000000 0.000000 -0.255093 1.010491 7.883672 -12.489245 -7.409529 1.671717 -58.903927 -5.186719 8.122948 1.509302 -24.128663 4.229565 0.000000 0.000000 0.000000 -4.668949 2.510200 7.307751 28.475130 1.557800 7.835612 48.340333 4.989442 7.821200 -5.453305 25.347018 -3.746076 0.000000 0.000000 0.000000 
20.529032 78.485107 0.755316 179.970403 3.454507 179.887580 -0.986976 -0.546463 9.338332 1.575701 -3.644364 -32.471098 5.685319 5.355098 28.916367 -2.119522 -2.191096 -11.169097 0.000000 0.000000 0.000000 2.682220 -2.691522 8.999893 -3.828806 9.607930 -31.439426 -1.002679 5.725035 31.737273 7.620864 5.037888 -16.173961 0.000000 0.000000 0.000000 3.800340 1.212281 -3.230399 -2.335920 -2.701370 -6.129203 -1.413101 -1.298079 9.739564 0.016050 0.023780 -0.034232 -1.876780 0.236033 10.951725 -0.685081 -0.408828 0.697990 0.000000 0.000000 0.000000 -0.263800 1.043801 7.960965 -12.532281 -7.499058 1.671782 -58.906844 -5.303459 8.131303 1.472485 -24.173699 4.273040 0.000000 0.000000 0.000000 -4.723816 2.434293 7.288207 28.397761 1.501823 7.816402 48.404284 4.962517 7.809868 -5.463402 25.286190 -3.740634 0.000000 0.000000 0.000000 
20.465414 78.510002 0.830989 179.960909 3.539159 179.867281 -0.991323 -0.532924 9.237758 1.508549 -3.549965 -32.374629 5.694884 5.439987 28.838295 -2.146467 -2.194668 -11.104990 0.000000 0.000000 0.000000 2.731692 -2.543078 9.001123 -3.950265 9.634527 -31.498008 -1.009264 5.758015 31.730965 7.553305 5.000816 -16.038035 0.000000 0.000000 0.000000 3.779920 1.259685 -3.149863 -2.318622 -2.732538 -6.135154 -1.430552 -1.327926 9.739064 0.027134 0.008509 -0.098830 -1.877360 0.256962 10.857352 -0.721764 -0.353177 0.630633 0.000000 0.000000 0.000000 -0.277551 0.993487 7.866469 -12.708258 -7.493280 1.698959 -59.021570 -5.407109 8.110519 1.570767 -24.131104 4.224303 0.000000 0.000000 0.000000 -4.731955 2.453539 7.236659 28.252494 1.415580 7.786961 48.471991 4.883690 7.656751 -5.486328 25.224870 -3.679177 0.000000 0.000000 0.000000 
20.415972 78.535782 0.940222 179.940842 3.699653 179.871160 -0.982919 -0.466787 9.158818 1.441284 -3.521617 -32.302198 5.574341 5.278659 28.706681 -2.047997 -1.996722 -10.941466 0.000000 0.000000 0.000000 2.811065 -2.394758 8.978197 -4.120193 9.603941 -31.587316 -0.965461 5.785442 31.745244 7.494168 5.018192 -15.904565 0.000000 0.000000 0.000000 3.770264 1.380177 -2.996176 -2.285799 -2.744376 -6.098754 -1.442107 -1.341964 9.584631 0.019227 0.010811 -0.027159 -1.885533 0.242052 10.676287 -0.814773 -0.418632 0.432887 0.000000 0.000000 0.000000 -0.283529 1.002874 7.829576 -12.891220 -7.534709 1.684967 -59.013333 -5.570866 8.169549 1.568454 -24.047909 4.258469 0.000000 0.000000 0.000000 -4.740534 2.408034 7.157442 28.127619 1.371074 7.746642 48.604862 4.855059 7.396461 -5.484364 25.138470 -3.767569 0.000000 0.000000 0.000000 
20.370287 78.561264 1.074769 179.865068 3.931657 179.885640 -1.070956 -0.269531 9.084337 1.527759 -3.626905 -32.298646 5.652724 5.573939 28.557868 -2.162009 -2.030355 -10.716286 0.000000 0.000000 0.000000 2.905324 -1.803589 8.960414 -4.236894 9.082955 -31.688219 -0.909481 5.948344 31.809711 7.416371 5.056195 -15.888342 0.000000 0.000000 0.000000 3.729927 1.532618 -2.810845 -2.275841 -2.762413 -6.064538 -1.459400 -1.351317 9.542701 0.052214 0.015757 -0.047992 -1.866929 0.321407 10.580817 -0.890279 -0.199064 0.298407 0.000000 0.000000 0.000000 -0.268029 1.018501 7.714883 -13.006813 -7.557213 1.720380 -58.957933 -5.717545 8.284955 1.686049 -23.957944 4.184589 0.000000 0.000000 0.000000 -4.723396 2.486803 7.000002 28.002724 1.223491 7.697804 48.785842 4.845897 6.927041 -5.534672 25.100624 -3.791058 0.000000 0.000000 0.000000 
20.317507 78.582817 1.214981 179.914860 3.938278 179.872540 -1.040255 -0.260533 9.042487 1.568456 -3.683403 -32.284894 5.535444 5.633693 28.385587 -2.183092 -1.842910 -10.485852 0.000000 0.000000 0.000000 3.067502 -1.650291 8.937234 -4.368309 8.824099 -31.800012 -0.824429 6.079262 31.861764 7.336388 5.106708 -15.795733 0.000000 0.000000 0.000000 3.772255 1.680747 -2.567556 -2.225182 -2.830269 -5.982330 -1.462341 -1.400610 9.454141 0.019535 0.017257 -0.023144 -1.882755 0.205871 10.402999 -0.955777 -0.161347 0.043637 0.000000 0.000000 0.000000 -0.251692 0.946233 7.635200 -13.027422 -7.548422 1.676637 -58.797677 -5.845504 8.442489 1.691483 -23.935030 4.275842 0.000000 0.000000 0.000000 -4.732961 2.352116 6.946502 27.936372 1.192239 7.638541 48.948172 4.846210 6.307814 -5.495617 24.946738 -3.822788 0.000000 0.000000 0.000000 
20.283873 78.599953 1.350358 179.824565 4.049287 179.845329 -1.192781 -0.201757 9.016925 1.557573 -3.498082 -32.282025 5.639137 5.775762 28.243368 -2.323350 -1.935977 -10.306699 0.000000 0.000000 0.000000 3.179082 -1.473278 8.908940 -4.503787 8.484222 -31.944399 -0.705974 6.303732 31.988993 7.279052 5.206173 -15.733983 0.000000 0.000000 0.000000 3.734556 1.793917 -2.307281 -2.236332 -2.869805 -5.899216 -1.479699 -1.422659 9.390233 -0.005703 0.003083 -0.027534 -1.819711 0.264298 10.322556 -1.004887 -0.098830 -0.137984 0.000000 0.000000 0.000000 -0.178277 0.940304 7.567243 -13.044114 -7.661306 1.722260 -58.598488 -5.990810 8.760353 1.820156 -23.924542 4.212823 0.000000 0.000000 0.000000 -4.670246 2.402787 6.831963 27.917968 1.021625 7.586554 49.172554 4.789902 5.632128 -5.491309 24.795557 -3.865928 0.000000 0.000000 0.000000 
20.251156 78.614174 1.445244 179.772341 4.070602 179.819456 -1.180692 -0.173966 9.008012 1.544036 -3.636941 -32.263245 5.658585 5.993543 28.112611 -2.454948 -1.928959 -10.097173 0.000000 0.000000 0.000000 3.273316 -1.347778 8.900389 -4.614051 8.223129 -32.094000 -0.592755 6.471470 32.169481 7.176752 5.253080 -15.693925 0.000000 0.000000 0.000000 3.682595 1.871912 -2.072032 -2.241180 -2.890615 -5.854177 -1.461096 -1.448973 9.337126 0.014758 0.018754 -0.001681 -1.823823 0.241966 10.218456 -0.975960 -0.117030 -0.278219 0.000000 0.000000 0.000000 -0.175257 0.845529 7.430769 -13.037765 -7.599802 1.682775 -58.388364 -6.223049 9.067310 1.865028 -23.867037 4.261758 0.000000 0.000000 0.000000 -4.658525 2.262362 6.757228 27.851256 0.967331 7.493985 49.316565 4.756395 5.018246 -5.448400 24.587296 -3.869931 0.000000 0.000000 0.000000 
20.255011 78.625549 1.477888 179.680038 4.132719 179.793091 -1.235751 -0.136928 9.066670 1.598929 -3.712713 -32.298322 5.695493 6.244215 28.048793 -2.565815 -1.957406 -9.996021 0.000000 0.000000 0.000000 3.376560 -1.240394 8.904054 -4.720618 7.905796 -32.263276 -0.453645 6.745523 32.485066 7.049957 5.272828 -15.755325 0.000000 0.000000 0.000000 3.572443 1.899238 -1.867013 -2.270966 -2.929351 -5.856171 -1.437838 -1.495678 9.246750 0.062190 0.003186 -0.027656 -1.779651 0.255780 10.162181 -1.014691 -0.027673 -0.457223 0.000000 0.000000 0.000000 -0.173983 0.877235 7.431764 -13.062877 -7.547245 1.637257 -58.366357 -6.383581 9.349889 1.929452 -23.704467 4.227942 0.000000 0.000000 0.000000 -4.651725 2.374120 6.750307 27.782447 0.826863 7.448987 49.461208 4.622894 4.650790 -5.472321 24.326639 -4.014185 0.000000 0.000000 0.000000 
20.307501 78.627518 1.430008 179.727590 4.203047 179.763052 -1.229524 -0.046002 9.158559 1.742391 -3.772880 -32.373574 5.757430 6.402027 28.156473 -2.647373 -2.034628 -10.030189 0.000000 0.000000 0.000000 3.589428 -1.172184 8.940444 -4.776330 7.610133 -32.416805 -0.269438 6.947504 32.880213 6.930903 5.280738 -15.914006 0.000000 0.000000 0.000000 3.574250 1.965026 -1.774066 -2.223479 -2.901214 -5.837483 -1.359457 -1.493349 9.136816 0.012486 0.003757 -0.037254 -1.695507 0.211811 10.142388 -0.942296 -0.012573 -0.532193 0.000000 0.000000 0.000000 -0.058394 0.868753 7.416890 -13.115122 -7.518927 1.612895 -58.399347 -6.469941 9.615044 1.952445 -23.548778 4.262834 0.000000 0.000000 0.000000 -4.553195 2.318740 6.751159 27.633219 0.780404 7.421479 49.609891 4.413626 4.317906 -5.432846 23.959609 -4.090500 0.000000 0.000000 0.000000 
